<svg width="36" height="36" viewBox="0 0 36 36" fill="none" xmlns="http://www.w3.org/2000/svg">
<path d="M22.035 25.935C22.174 25.7963 22.2843 25.6314 22.3596 25.45C22.4349 25.2685 22.4736 25.074 22.4736 24.8775C22.4736 24.6811 22.4349 24.4866 22.3596 24.3051C22.2843 24.1236 22.174 23.9588 22.035 23.82L16.215 18L22.035 12.18C22.3154 11.8996 22.473 11.5192 22.473 11.1225C22.473 10.7259 22.3154 10.3455 22.035 10.065C21.7545 9.78456 21.3741 9.627 20.9775 9.627C20.5808 9.627 20.2004 9.78456 19.92 10.065L13.035 16.95C12.8959 17.0888 12.7856 17.2536 12.7103 17.4351C12.635 17.6166 12.5963 17.8111 12.5963 18.0075C12.5963 18.204 12.635 18.3985 12.7103 18.58C12.7856 18.7614 12.8959 18.9263 13.035 19.065L19.92 25.95C20.49 26.52 21.45 26.52 22.035 25.935Z" fill="black"/>
</svg>
