<svg width="44" height="44" viewBox="0 0 44 44" fill="none" xmlns="http://www.w3.org/2000/svg">
<path fill-rule="evenodd" clip-rule="evenodd" d="M32.9995 22C32.9995 22.3647 32.8547 22.7144 32.5968 22.9723C32.3389 23.2302 31.9892 23.375 31.6245 23.375H15.6938L21.598 29.2765C21.7259 29.4044 21.8273 29.5561 21.8965 29.7232C21.9657 29.8902 22.0013 30.0692 22.0013 30.25C22.0013 30.4308 21.9657 30.6098 21.8965 30.7769C21.8273 30.9439 21.7259 31.0957 21.598 31.2235C21.4702 31.3514 21.3184 31.4528 21.1514 31.522C20.9844 31.5912 20.8053 31.6268 20.6245 31.6268C20.4437 31.6268 20.2647 31.5912 20.0977 31.522C19.9306 31.4528 19.7789 31.3514 19.651 31.2235L11.401 22.9735C11.273 22.8458 11.1714 22.6941 11.1021 22.527C11.0328 22.36 10.9971 22.1809 10.9971 22C10.9971 21.8192 11.0328 21.6401 11.1021 21.473C11.1714 21.306 11.273 21.1543 11.401 21.0265L19.651 12.7765C19.9092 12.5183 20.2594 12.3733 20.6245 12.3733C20.9897 12.3733 21.3398 12.5183 21.598 12.7765C21.8562 13.0347 22.0013 13.3849 22.0013 13.75C22.0013 14.1152 21.8562 14.4653 21.598 14.7235L15.6938 20.625H31.6245C31.9892 20.625 32.3389 20.7699 32.5968 21.0278C32.8547 21.2856 32.9995 21.6354 32.9995 22Z" fill="#2C2C2C"/>
</svg>
