<svg width="21" height="21" viewBox="0 0 21 21" fill="none" xmlns="http://www.w3.org/2000/svg">
<path d="M12.8535 15.1287C12.9346 15.0478 12.999 14.9516 13.0429 14.8457C13.0868 14.7399 13.1094 14.6264 13.1094 14.5118C13.1094 14.3972 13.0868 14.2838 13.0429 14.1779C12.999 14.0721 12.9346 13.9759 12.8535 13.895L9.45849 10.4999L12.8535 7.10495C13.0171 6.94134 13.109 6.71945 13.109 6.48808C13.109 6.2567 13.0171 6.0348 12.8535 5.8712C12.6899 5.70759 12.468 5.61568 12.2366 5.61568C12.0052 5.61568 11.7833 5.70759 11.6197 5.8712L7.60349 9.88745C7.52237 9.9684 7.45802 10.0646 7.41411 10.1704C7.3702 10.2763 7.3476 10.3897 7.3476 10.5043C7.3476 10.6189 7.3702 10.7324 7.41411 10.8382C7.45802 10.9441 7.52237 11.0403 7.60349 11.1212L11.6197 15.1375C11.9522 15.47 12.5122 15.47 12.8535 15.1287Z" fill="#2C2C2C"/>
</svg>
