<svg width="12" height="12" viewBox="0 0 12 12" fill="none" xmlns="http://www.w3.org/2000/svg">
<g clip-path="url(#clip0_331_557)">
<path d="M2.82548 9.47091C2.78032 9.72796 3.0339 9.92886 3.25737 9.81423L5.79895 8.50812L8.33995 9.81423C8.56342 9.92886 8.817 9.72796 8.77184 9.47149L8.29132 6.73307L10.3304 4.79012C10.5214 4.60833 10.423 4.27602 10.1671 4.24012L7.33142 3.83717L6.067 1.33207C6.04291 1.28129 6.00491 1.23838 5.95741 1.20834C5.90991 1.1783 5.85486 1.16235 5.79866 1.16235C5.74246 1.16235 5.68741 1.1783 5.63991 1.20834C5.59241 1.23838 5.5544 1.28129 5.53032 1.33207L4.2659 3.83775L1.43021 4.2407C1.1749 4.27659 1.0759 4.60891 1.26637 4.7907L3.306 6.73365L2.82548 9.47207V9.47091ZM5.66521 7.86896L3.53121 8.96549L3.933 6.67459C3.94241 6.62186 3.93873 6.56762 3.92228 6.51664C3.90582 6.46566 3.8771 6.41951 3.83863 6.38223L2.15621 4.77854L4.50211 4.44507C4.55068 4.43773 4.59676 4.41873 4.63638 4.38969C4.67601 4.36065 4.70801 4.32244 4.72963 4.27833L5.79779 2.16054L6.86711 4.27833C6.88873 4.32244 6.92073 4.36065 6.96036 4.38969C6.99998 4.41873 7.04606 4.43773 7.09463 4.44507L9.44053 4.77796L7.75811 6.38165C7.71955 6.41899 7.69077 6.46524 7.67432 6.51633C7.65786 6.56742 7.65423 6.62177 7.66374 6.67459L8.06553 8.96549L5.93153 7.86896C5.89026 7.84769 5.84451 7.83659 5.79808 7.83659C5.75165 7.83659 5.70648 7.84769 5.66521 7.86896Z" fill="#8A8A8A" stroke="#8A8A8A" stroke-width="0.8"/>
</g>
<defs>
<clipPath id="clip0_331_557">
<rect width="11" height="11" fill="white" transform="translate(0.00878906 0.00439453)"/>
</clipPath>
</defs>
</svg>
