<svg width="36" height="36" viewBox="0 0 36 36" fill="none" xmlns="http://www.w3.org/2000/svg">
<path d="M13.965 10.065C13.826 10.2037 13.7157 10.3686 13.6404 10.55C13.5651 10.7315 13.5264 10.926 13.5264 11.1225C13.5264 11.3189 13.5651 11.5134 13.6404 11.6949C13.7157 11.8764 13.826 12.0412 13.965 12.18L19.785 18L13.965 23.82C13.6846 24.1004 13.527 24.4808 13.527 24.8775C13.527 25.2741 13.6846 25.6545 13.965 25.935C14.2455 26.2154 14.6259 26.373 15.0225 26.373C15.4192 26.373 15.7996 26.2154 16.08 25.935L22.965 19.05C23.1041 18.9112 23.2144 18.7464 23.2897 18.5649C23.365 18.3834 23.4037 18.1889 23.4037 17.9925C23.4037 17.796 23.365 17.6015 23.2897 17.42C23.2144 17.2386 23.1041 17.0737 22.965 16.935L16.08 10.05C15.51 9.47997 14.55 9.47997 13.965 10.065Z" fill="black"/>
</svg>
