<svg width="9" height="14" viewBox="0 0 9 14" fill="none" xmlns="http://www.w3.org/2000/svg">
<g clip-path="url(#clip0_331_555)">
<path d="M8.00859 3.66064C8.00859 5.6792 6.39609 7.31689 4.40859 7.31689C2.42034 7.31689 0.808594 5.6792 0.808594 3.66064C0.808594 1.64133 2.42034 0.00439453 4.40859 0.00439453C6.39609 0.00439453 8.00859 1.64133 8.00859 3.66064ZM4.80859 1.62939C4.80859 1.40494 4.62859 1.22314 4.40859 1.22314C3.06109 1.22314 2.00859 2.31443 2.00859 3.66064C2.00859 3.88408 2.18759 4.06689 2.40859 4.06689C2.62859 4.06689 2.80859 3.88408 2.80859 3.66064C2.80859 2.76436 3.52609 2.03564 4.40859 2.03564C4.62859 2.03564 4.80859 1.85385 4.80859 1.62939ZM3.60859 12.1919V8.05576C3.86859 8.104 4.13609 8.10654 4.40859 8.10654C4.68109 8.10654 4.94859 8.104 5.20859 8.05576V12.1919C5.20859 12.6413 4.85109 13.0044 4.40859 13.0044C3.96609 13.0044 3.60859 12.6413 3.60859 12.1919Z" fill="#8A8A8A"/>
</g>
<defs>
<clipPath id="clip0_331_555">
<rect width="8" height="13" fill="white" transform="translate(0.00878906 0.00439453)"/>
</clipPath>
</defs>
</svg>
