<svg width="51" height="51" viewBox="0 0 51 51" fill="none" xmlns="http://www.w3.org/2000/svg">
<g clip-path="url(#clip0_169_49)">
<path d="M51 25.5C51 18.737 48.3134 12.251 43.5312 7.46878C38.749 2.6866 32.263 0 25.5 0C18.737 0 12.251 2.6866 7.46878 7.46878C2.6866 12.251 0 18.737 0 25.5C0 32.263 2.6866 38.749 7.46878 43.5312C12.251 48.3134 18.737 51 25.5 51C32.263 51 38.749 48.3134 43.5312 43.5312C48.3134 38.749 51 32.263 51 25.5ZM27.0938 36.6562C27.0938 37.0789 26.9258 37.4843 26.627 37.7832C26.3281 38.0821 25.9227 38.25 25.5 38.25C25.0773 38.25 24.6719 38.0821 24.373 37.7832C24.0742 37.4843 23.9062 37.0789 23.9062 36.6562V18.1911L17.0659 25.0346C16.7666 25.3339 16.3607 25.502 15.9375 25.502C15.5143 25.502 15.1084 25.3339 14.8091 25.0346C14.5099 24.7354 14.3417 24.3295 14.3417 23.9062C14.3417 23.483 14.5099 23.0771 14.8091 22.7779L24.3716 13.2154C24.5197 13.067 24.6955 12.9492 24.8892 12.8689C25.0828 12.7885 25.2904 12.7472 25.5 12.7472C25.7096 12.7472 25.9172 12.7885 26.1108 12.8689C26.3045 12.9492 26.4803 13.067 26.6284 13.2154L36.1909 22.7779C36.4901 23.0771 36.6583 23.483 36.6583 23.9062C36.6583 24.3295 36.4901 24.7354 36.1909 25.0346C35.8916 25.3339 35.4857 25.502 35.0625 25.502C34.6393 25.502 34.2334 25.3339 33.9341 25.0346L27.0938 18.1911V36.6562Z" fill="white"/>
</g>
<defs>
<clipPath id="clip0_169_49">
<rect width="51" height="51" fill="white"/>
</clipPath>
</defs>
</svg>
